<svg width="713" height="704" viewBox="0 0 713 704" fill="none" xmlns="http://www.w3.org/2000/svg">
<path d="M492.268 23.6211C496.488 37.3657 489.586 48.8725 483.29 60.7345C467.338 90.7885 448.812 119.593 435.056 150.783C432.304 157.025 429.894 163.538 426.964 169.686C426.942 164.53 429.372 159.664 422.878 158.306C423.476 151.546 432.18 127.573 436.182 124.727C435.018 119.057 439.354 110.28 445.006 108.5C448.666 106.284 451.054 97.2185 455.046 93.2665C467.084 90.5545 488.03 40.7945 492.268 23.6211Z" fill="#3BF4FB"/>
<path d="M445.006 108.5C452.906 114.924 443.304 131.018 436.182 124.726C435.018 119.056 439.354 110.28 445.006 108.5Z" fill="black"/>
<path d="M216.13 380.142C215.144 372.554 219.524 363.898 221.606 356.77L232.924 318.168C249.316 264.152 264.942 209.156 286.444 156.882C298.034 128.702 312.958 105.162 341.016 91.07C355.538 83.776 361.488 82.986 374.788 72.072C400.248 51.18 432.198 4.03221 463.37 0.766809C479.392 -0.911391 490.818 7.58042 492.268 23.6206C488.03 40.794 467.084 90.554 455.046 93.266C444.468 81.44 485.744 45.456 483.514 22.071C482.602 12.5092 471.66 8.87762 463.394 10.128C438.706 15.762 421.472 39.6864 404.99 57.022C385.414 77.61 372.126 87.224 346.2 99.164C309.272 116.17 297.042 154.906 284.166 190.246C267.864 234.988 254.744 280.568 240.522 325.978L231.366 354.558C228.612 363.166 226.318 372.202 221.924 380.142H216.13Z" fill="black"/>
<path d="M621.518 523.458C626.568 517.924 637.482 524.514 643.03 526.654C663.57 534.576 688.274 544.122 702.846 561.232C746.364 612.334 629.4 652.2 598.948 662.182C479.258 701.416 364.652 714.186 240.6 693.726C231.014 692.146 159.144 677.828 155.7 673.766C154.56 672.42 155.52 669.462 156.054 667.95C161.208 666.068 169.03 670.324 174.386 670.832C186.828 674.384 199.398 677.544 212.144 679.794C219.152 678.74 239.228 682.926 246.954 684.002C322.266 694.492 382.578 691.816 458.106 679.148C488.788 674.002 734.322 625.784 684.868 560.362C683.422 558.45 681.76 556.84 680.648 554.686C671.816 547.978 652.492 540.162 641.758 536.038C635.116 533.486 622.302 531.912 621.518 523.458Z" fill="black"/>
<path d="M680.648 554.686C696.172 563.178 709.096 579.19 699.012 596.83C678.444 632.806 580.832 659.472 541.204 669.886C436.592 697.376 318.288 704.662 212.144 679.794C219.152 678.74 239.228 682.926 246.954 684.002C322.266 694.492 382.578 691.816 458.106 679.148C488.788 674.002 734.322 625.784 684.868 560.362C683.422 558.45 681.76 556.84 680.648 554.686Z" fill="white"/>
<path d="M463.394 10.1277C471.66 8.87729 482.602 12.5089 483.514 22.0707C485.744 45.4557 444.468 81.4397 455.046 93.2657C451.054 97.2177 448.666 106.284 445.006 108.5C439.354 110.28 435.018 119.056 436.182 124.726C432.18 127.572 423.476 151.546 422.878 158.306C429.372 159.664 426.942 164.53 426.964 169.686C423.206 186.348 428.196 201.558 432.708 217.476C456.63 301.85 489.932 396.514 528.896 475.576C532.72 483.338 537.044 491.154 540.092 499.246C548.87 499.826 593.852 508.08 597.59 515.74C602.26 517.268 619.49 520.912 621.518 523.458C622.302 531.912 635.116 533.486 641.758 536.038C652.492 540.162 671.816 547.978 680.648 554.686C681.76 556.84 683.422 558.45 684.868 560.362C734.322 625.784 488.788 674.002 458.106 679.148C382.578 691.816 322.266 694.492 246.954 684.002C239.228 682.926 219.152 678.74 212.144 679.794C199.398 677.544 186.828 674.384 174.386 670.832C169.03 670.324 161.208 666.068 156.054 667.95C154.364 667.038 135.568 662.014 132.014 660.98C129.028 660.112 129.54 664.948 122.718 663.278C112.48 664.79 64.1983 642.394 52.9923 636.524C-74.9241 569.51 61.7583 525.448 131.704 508.472C144.912 505.268 158.74 503.246 171.704 499.246C178.456 482.128 185.814 465.306 192.328 448.054C196.172 437.876 201.542 417.4 206.842 409.322C209.084 399.422 212.41 389.582 216.13 380.142H221.924C226.318 372.202 228.612 363.166 231.366 354.558L240.522 325.978C254.744 280.568 267.864 234.988 284.166 190.246C297.042 154.906 309.272 116.17 346.2 99.1637C372.126 87.2237 385.414 77.6097 404.99 57.0217C421.472 39.6861 438.706 15.7617 463.394 10.1277ZM463.394 10.1277C438.706 15.7617 421.472 39.6861 404.99 57.0217C385.414 77.6097 372.126 87.2237 346.2 99.1637C309.272 116.17 297.042 154.906 284.166 190.246C267.864 234.988 254.744 280.568 240.522 325.978L231.366 354.558C228.612 363.166 226.318 372.202 221.924 380.142H216.13C212.41 389.582 209.084 399.422 206.842 409.322C208.606 409.294 210.386 409.198 212.144 409.322L213.318 409.856C214.432 414.16 199.802 451.788 197.062 460.136C205.084 464.256 213.258 468.21 221.924 470.794C242.204 477.862 270.094 483.818 291.484 485.848C284.904 482.242 275.382 478.56 275.542 469.62C275.91 449.292 319.192 458.458 331.22 458.596C333.256 447.562 335.988 408.542 346.602 403.256C364.77 394.208 373.73 436.26 380.11 450.634C398.792 453.072 427.776 441.108 433.736 466.254C432.058 473.018 428.232 476.134 422.878 480.08C450.682 474.54 473.794 469.536 501.08 461.118C504.35 460.73 507.636 460.56 510.91 460.136C508.562 451.882 504.816 443.98 501.464 436.09C476.152 376.494 454.288 316.274 434.87 254.446C428.138 233.014 405.644 178.47 422.878 158.306C423.476 151.546 432.18 127.572 436.182 124.726C435.018 119.056 439.354 110.28 445.006 108.5C448.666 106.284 451.054 97.2177 455.046 93.2657C444.468 81.4397 485.744 45.4557 483.514 22.0707C482.602 12.5089 471.66 8.87729 463.394 10.1277ZM349.294 417.256C346.156 426.274 342.444 463.674 336.492 467.562C330.094 471.742 292.212 462.128 284.78 469.332L284.486 470.39C288.476 476.172 325.738 490.884 328.856 496.078C332.06 501.418 320.944 529.644 321.786 539.574C325.114 535.724 329.252 532.46 333.004 529.028L349.294 513.884C368.594 495.684 372.708 521.038 387.388 521.008L387.874 520.016C386.21 509.916 371.442 504.07 374.186 489.128C376.378 477.194 394.742 468.188 404.498 461.118C394.456 459.75 384.09 462.634 373.932 461.118C368.99 452.444 354.232 395.088 349.294 417.256ZM505.278 470.794C508.656 478.084 511.678 485.552 515.14 492.792C526.958 517.506 547.054 544.526 511.328 561.04C471.118 579.628 365.02 589.918 317.716 590.126L319.768 592.512C327.122 592.05 334.544 592.862 341.934 592.512C348.836 590.468 357.142 590.954 364.298 590.662C399.062 589.244 434.228 585.908 468.652 581.086C491.274 577.918 532.744 573.96 543.326 549.516C551.602 530.4 522.25 485.764 514.43 466.254C510.944 467.234 508.16 468.624 505.278 470.794ZM404.498 461.118C394.742 468.188 376.378 477.194 374.186 489.128C371.442 504.07 386.21 509.916 387.874 520.016L387.388 521.008C372.708 521.038 368.594 495.684 349.294 513.884C355.006 523.944 349.67 519.212 349.43 526.274L350.466 527.298C348.744 529.964 345.398 531.654 344.556 534.858C349.182 530.874 354.296 523.126 359.818 520.816C369.97 516.572 399.276 546.466 407.25 543.44C413.084 536.286 391.284 503.588 390.938 493.184C390.612 483.404 414.916 475.656 421.536 468.6C430.6 458.938 408.53 460.378 404.498 461.118ZM321.786 539.574C321.38 563.63 336.188 544.41 344.556 534.858C345.398 531.654 348.744 529.964 350.466 527.298L349.43 526.274C349.67 519.212 355.006 523.944 349.294 513.884L333.004 529.028C329.252 532.46 325.114 535.724 321.786 539.574Z" fill="black"/>
<path d="M349.294 417.256C354.232 395.088 368.99 452.444 373.932 461.118C384.09 462.634 394.456 459.75 404.498 461.118C394.742 468.188 376.378 477.194 374.186 489.128C371.442 504.07 386.21 509.916 387.874 520.016L387.388 521.008C372.708 521.038 368.594 495.684 349.294 513.884L333.004 529.028C329.252 532.46 325.114 535.724 321.786 539.574C320.944 529.644 332.06 501.418 328.856 496.078C325.738 490.884 288.476 476.172 284.486 470.39L284.78 469.332C292.212 462.128 330.094 471.742 336.492 467.562C342.444 463.674 346.156 426.274 349.294 417.256ZM349.294 417.256C356.594 427.988 357.006 450.942 362.442 463.08C365.5 469.908 374.104 471.664 373.932 461.118C368.99 452.444 354.232 395.088 349.294 417.256Z" fill="#A37AF8"/>
<path d="M122.718 663.278C126.12 651.742 102.854 648.938 93.4497 645.43C-83.7237 579.36 62.0797 528.102 165.698 509.844C162.318 516.758 159.79 523.428 157.694 530.84C152.986 528.324 25.6615 552.66 39.4813 593.27C51.0377 627.23 143.926 651.582 179.222 670.176C177.972 671.14 175.982 670.54 174.386 670.832C169.03 670.324 161.208 666.068 156.054 667.95C154.364 667.038 135.568 662.014 132.014 660.98C129.028 660.112 129.54 664.948 122.718 663.278Z" fill="#00D8B5"/>
<path d="M194.018 468.374C202.262 473.136 211.564 476.598 220.4 480.08C252.51 491.88 286.67 492.42 319.768 499.246C316.988 513.62 301.588 557.822 323.45 561.234C336.934 563.338 352.516 538.948 362.798 531.32L363.45 530.84C373.428 536.298 399.276 556.4 410.634 552.164C430.144 544.886 405.174 504.082 400.67 493.198C417.098 489.152 434.432 487.826 451.06 484.212C469.11 480.288 487.162 473.74 505.278 470.794C508.656 478.084 511.678 485.552 515.14 492.792C526.958 517.506 547.054 544.526 511.328 561.04C471.118 579.628 365.02 589.918 317.716 590.126C311.208 587.892 288.708 588.252 280.05 587.404C260.448 585.486 240.984 582.102 221.924 577.174C201.344 575.552 164.194 559.376 165.76 534.72C166.51 522.926 188.556 487.31 193.83 469.04L194.018 468.374Z" fill="#7B2CBF"/>
<path d="M544.468 509.844C560.676 511 588.494 526.092 597.59 515.74C602.26 517.268 619.49 520.912 621.518 523.458C622.302 531.912 635.116 533.486 641.758 536.038C652.492 540.162 671.816 547.978 680.648 554.686C681.76 556.84 683.422 558.45 684.868 560.362C734.322 625.784 488.788 674.002 458.106 679.148C382.578 691.816 322.266 694.492 246.954 684.002C239.228 682.926 219.152 678.74 212.144 679.794C199.398 677.544 186.828 674.384 174.386 670.832C175.982 670.54 177.972 671.14 179.222 670.176C143.926 651.582 51.0381 627.23 39.4817 593.27C25.6619 552.66 152.986 528.324 157.694 530.84C154.012 586.148 249.5 594.458 287.31 596.584C293.768 596.946 317.97 600.964 319.768 592.512C327.122 592.05 334.544 592.862 341.934 592.512C342.872 601.908 358.23 597.516 365.766 597.578C404.056 597.894 505.292 592.436 536.088 571.658C558.16 556.766 559 530.796 544.468 509.844Z" fill="#3BF4FB"/>
<path d="M463.394 10.1277C471.66 8.87729 482.602 12.5089 483.514 22.0707C485.744 45.4557 444.469 81.4397 455.047 93.2657C451.055 97.2177 448.666 106.284 445.006 108.5C439.354 110.28 435.018 119.056 436.182 124.726C432.18 127.572 423.476 151.546 422.878 158.306C405.644 178.47 428.138 233.014 434.87 254.446C454.288 316.274 476.152 376.494 501.464 436.09C504.816 443.98 508.562 451.882 510.91 460.136C507.636 460.56 504.351 460.73 501.081 461.118C473.795 469.536 450.682 474.54 422.878 480.08C428.232 476.134 432.059 473.018 433.737 466.254C427.777 441.108 398.792 453.072 380.11 450.634C373.73 436.26 364.77 394.208 346.602 403.256C335.988 408.542 333.256 447.562 331.22 458.596C319.192 458.458 275.91 449.292 275.542 469.62C275.382 478.56 284.904 482.242 291.484 485.848C270.094 483.818 242.205 477.862 221.924 470.794C213.258 468.21 205.085 464.256 197.062 460.136C199.803 451.788 214.432 414.16 213.318 409.856L212.145 409.322C210.387 409.198 208.606 409.294 206.842 409.322C209.084 399.422 212.41 389.582 216.13 380.142H221.924C226.318 372.202 228.612 363.166 231.366 354.558L240.522 325.978C254.744 280.568 267.864 234.988 284.166 190.246C297.042 154.906 309.272 116.17 346.201 99.1637C372.127 87.2237 385.414 77.6097 404.99 57.0217C421.472 39.6861 438.706 15.7617 463.394 10.1277ZM463.394 10.1277C465.47 12.2185 468.152 13.4033 470.214 15.4747C479.146 24.1845 463.737 44.9097 458.953 54.1517L438.634 94.2357C394.92 180.844 402.386 183.458 431.454 274.184C449.988 332.03 473.587 406.678 501.081 461.118C504.351 460.73 507.636 460.56 510.91 460.136C508.562 451.882 504.816 443.98 501.464 436.09C476.152 376.494 454.288 316.274 434.87 254.446C428.138 233.014 405.644 178.47 422.878 158.306C423.476 151.546 432.18 127.572 436.182 124.726C435.018 119.056 439.354 110.28 445.006 108.5C448.666 106.284 451.055 97.2177 455.047 93.2657C444.469 81.4397 485.744 45.4557 483.514 22.0707C482.602 12.5089 471.66 8.87729 463.394 10.1277Z" fill="#3BF4FB"/>
<path d="M410.746 300.906C421.238 305.128 424.612 320.236 428.218 329.652C436.09 350.204 444.398 367.17 452.836 386.904C455.744 393.7 458.988 401.418 450.034 404.236C431.628 399.14 403.12 310.816 405.402 305.18C406.246 303.094 408.884 301.938 410.746 300.906Z" fill="white"/>
<path d="M221.924 380.142C226.318 372.202 228.612 363.166 231.366 354.558L240.522 325.978C254.744 280.568 267.864 234.988 284.166 190.246C297.042 154.906 309.272 116.17 346.201 99.1639C372.127 87.2239 385.414 77.6099 404.99 57.0219C421.472 39.6863 438.706 15.7619 463.394 10.1279C465.47 12.2187 468.152 13.4035 470.214 15.4749C474.614 28.2811 417.616 75.1579 407.764 81.9599C381.862 99.8459 358.966 106.666 337.31 132.296C313.32 160.688 303.61 197.614 293.918 232.676L275.982 297.636C265.642 333.946 253.647 369.874 242.171 405.842C235.201 427.686 229.242 448.806 221.924 470.794C213.258 468.21 205.085 464.256 197.062 460.136C199.803 451.788 214.432 414.16 213.318 409.856L212.145 409.322C210.387 409.198 208.606 409.294 206.842 409.322C209.084 399.422 212.41 389.582 216.13 380.142H221.924Z" fill="#00D8B5"/>
<path d="M216.13 380.142H221.924C220.162 384.65 214.488 408.198 212.144 409.322C210.386 409.198 208.606 409.294 206.842 409.322C209.084 399.422 212.41 389.582 216.13 380.142Z" fill="#3BF4FB"/>
</svg>
